<svg xmlns="http://www.w3.org/2000/svg" viewBox="0 0 1024 1024" width="1024" height="1024">
  <defs>
    <linearGradient id="bg" x1="0%" y1="0%" x2="100%" y2="100%">
      <stop offset="0%" stop-color="#5B9FD6"/>
      <stop offset="100%" stop-color="#1B5EA0"/>
    </linearGradient>
    <linearGradient id="ribbon" x1="0%" y1="0%" x2="0%" y2="100%">
      <stop offset="0%" stop-color="#E85D5D"/>
      <stop offset="100%" stop-color="#D14545"/>
    </linearGradient>
    <!-- Clip the bookmark so it doesn't extend above the book -->
    <clipPath id="bookClip">
      <rect x="0" y="100" width="1024" height="924"/>
    </clipPath>
  </defs>

  <!-- Background -->
  <rect width="1024" height="1024" fill="url(#bg)"/>

  <!-- Drop shadow -->
  <rect x="238" y="108" width="560" height="780" rx="32" ry="32" fill="rgba(0,0,0,0.12)"/>

  <!-- Journal body - centered (512 - 280 = 232) -->
  <rect x="232" y="100" width="560" height="780" rx="28" ry="28" fill="#E3DACC"/>

  <!-- Spine -->
  <rect x="232" y="100" width="50" height="780" rx="28" ry="0" fill="#C9BBAA"/>
  <rect x="257" y="100" width="25" height="780" fill="#E3DACC"/>
  <line x1="282" y1="100" x2="282" y2="880" stroke="#D4C8B8" stroke-width="2.5"/>

  <!-- Cover detail - embossed rectangle -->
  <rect x="350" y="310" width="370" height="220" rx="10" ry="10" fill="none" stroke="#D4C8B8" stroke-width="3.5"/>

  <!-- Decorative line inside embossed area -->
  <line x1="415" y1="440" x2="655" y2="440" stroke="#D4C8B8" stroke-width="3" stroke-linecap="round"/>

  <!-- Page edges visible at bottom -->
  <line x1="248" y1="866" x2="778" y2="866" stroke="#F0E8DF" stroke-width="4" stroke-linecap="round"/>
  <line x1="248" y1="859" x2="778" y2="859" stroke="#F5EEE5" stroke-width="3" stroke-linecap="round"/>

  <!-- Bookmark ribbon - starts at top of book, hangs down ~1/3 -->
  <path d="M 620 100 L 620 400 L 655 350 L 690 400 L 690 100 Z" fill="url(#ribbon)"/>
</svg>
