<svg xmlns="http://www.w3.org/2000/svg" viewBox="0 0 1024 1024" width="1024" height="1024">
  <defs>
    <linearGradient id="bg" x1="0%" y1="0%" x2="100%" y2="100%">
      <stop offset="0%" stop-color="#5B9FD6"/>
      <stop offset="100%" stop-color="#1B5EA0"/>
    </linearGradient>
    <linearGradient id="ribbon" x1="0%" y1="0%" x2="0%" y2="100%">
      <stop offset="0%" stop-color="#E85D5D"/>
      <stop offset="100%" stop-color="#D14545"/>
    </linearGradient>
  </defs>

  <!-- Background -->
  <rect width="1024" height="1024" fill="url(#bg)"/>

  <!-- Drop shadow -->
  <rect x="298" y="248" width="420" height="560" rx="12" ry="12" fill="rgba(0,0,0,0.15)"/>

  <!-- Journal body -->
  <rect x="290" y="240" width="420" height="560" rx="10" ry="10" fill="#E3DACC"/>

  <!-- Spine -->
  <rect x="290" y="240" width="36" height="560" rx="10" ry="0" fill="#C9BBAA"/>
  <rect x="308" y="240" width="18" height="560" fill="#E3DACC"/>
  <!-- Spine line -->
  <line x1="326" y1="240" x2="326" y2="800" stroke="#D4C8B8" stroke-width="2"/>

  <!-- Cover detail - embossed rectangle suggesting title area -->
  <rect x="370" y="380" width="280" height="160" rx="6" ry="6" fill="none" stroke="#D4C8B8" stroke-width="3"/>

  <!-- Small decorative line inside the embossed area -->
  <line x1="420" y1="480" x2="600" y2="480" stroke="#D4C8B8" stroke-width="2.5" stroke-linecap="round"/>

  <!-- Page edges visible at bottom -->
  <line x1="300" y1="790" x2="700" y2="790" stroke="#F0E8DF" stroke-width="3" stroke-linecap="round"/>
  <line x1="300" y1="785" x2="700" y2="785" stroke="#F5EEE5" stroke-width="2" stroke-linecap="round"/>

  <!-- Bookmark ribbon - prominent, extending above the journal -->
  <path d="M 560 190 L 560 620 L 590 580 L 620 620 L 620 190 Z" fill="url(#ribbon)"/>
  <!-- Ribbon top tucked behind book - covered by journal top edge -->
  <rect x="290" y="240" width="420" height="14" rx="10" ry="10" fill="#E3DACC"/>
  <!-- Re-draw spine top to stay on top -->
  <rect x="290" y="240" width="36" height="14" rx="10" ry="0" fill="#C9BBAA"/>
  <rect x="308" y="240" width="18" height="14" fill="#E3DACC"/>
</svg>
